<svg width="194" height="30" viewBox="0 0 194 30" fill="none" xmlns="http://www.w3.org/2000/svg">
<line x1="14.3003" x2="13.3003" y2="30" stroke="#BDBDBD" stroke-width="3"/>
<line x1="30" y1="14.68" x2="-1.19213e-07" y2="14.68" stroke="#BDBDBD" stroke-width="3"/>
<path d="M68.0542 28.3579H65.7227V24H52.9663V28.3701H50.6226L50.6104 22.0835H52.063C52.828 21.2209 53.4342 20.0653 53.8818 18.6167C54.3376 17.16 54.6224 15.5649 54.7363 13.8315L55.127 6.22656H65.7593V22.0835H68.0786L68.0542 28.3579ZM54.7363 22.0835H63.4033V8.15527H57.3853L57.1289 13.3799C57.0231 15.4225 56.7505 17.1641 56.311 18.6045C55.8797 20.0449 55.3548 21.2046 54.7363 22.0835ZM85.4907 15.687C85.4907 17.4285 85.1978 18.9504 84.6118 20.2524C84.0259 21.5464 83.1958 22.5352 82.1216 23.2188C81.0474 23.9023 79.7941 24.2441 78.3618 24.2441C76.9621 24.2441 75.721 23.9023 74.6387 23.2188C73.5563 22.527 72.714 21.5464 72.1118 20.2769C71.5177 18.9992 71.2126 17.5221 71.1963 15.8457V14.564C71.1963 12.855 71.4933 11.3454 72.0874 10.0352C72.6815 8.72493 73.5197 7.72396 74.6021 7.03223C75.6925 6.33236 76.9377 5.98242 78.3374 5.98242C79.7616 5.98242 81.0148 6.32829 82.0972 7.02002C83.1877 7.70361 84.0259 8.70052 84.6118 10.0107C85.1978 11.3128 85.4907 12.8306 85.4907 14.564V15.687ZM83.1592 14.5396C83.1592 12.4318 82.736 10.8164 81.8896 9.69336C81.0433 8.56217 79.8592 7.99658 78.3374 7.99658C76.8563 7.99658 75.6885 8.56217 74.834 9.69336C73.9876 10.8164 73.5522 12.3789 73.5278 14.3809V15.687C73.5278 17.7297 73.9551 19.3369 74.8096 20.5088C75.6722 21.6725 76.8563 22.2544 78.3618 22.2544C79.8755 22.2544 81.0474 21.7051 81.8774 20.6064C82.7075 19.4997 83.1348 17.9168 83.1592 15.8579V14.5396ZM101.096 8.15527H92.5269V13.4775H96.9458C98.8013 13.502 100.25 13.978 101.292 14.9058C102.333 15.8335 102.854 17.0949 102.854 18.6899C102.854 20.2931 102.329 21.5708 101.279 22.5229C100.229 23.4751 98.7972 23.9674 96.9824 24H90.1709V6.22656H101.096V8.15527ZM92.5269 15.4062V22.0835H96.8115C97.9753 22.0835 98.8786 21.7743 99.5215 21.1558C100.173 20.5373 100.498 19.7072 100.498 18.6655C100.498 17.6646 100.185 16.8752 99.5581 16.2974C98.9396 15.7196 98.0566 15.4225 96.9092 15.4062H92.5269ZM117.092 19.3613H109.646L107.974 24H105.557L112.344 6.22656H114.395L121.194 24H118.789L117.092 19.3613ZM110.354 17.4326H116.396L113.369 9.11963L110.354 17.4326ZM124.836 24V6.22656H130.647C132.576 6.22656 134.024 6.62533 134.993 7.42285C135.969 8.22038 136.458 9.40039 136.458 10.9629C136.458 11.793 136.222 12.5295 135.75 13.1724C135.278 13.8071 134.635 14.2995 133.821 14.6494C134.781 14.918 135.538 15.4307 136.091 16.1875C136.653 16.9362 136.934 17.8314 136.934 18.873C136.934 20.4681 136.417 21.7214 135.383 22.6328C134.35 23.5443 132.889 24 131.001 24H124.836ZM127.18 15.687V22.0835H131.05C132.14 22.0835 132.999 21.8027 133.625 21.2412C134.26 20.6715 134.578 19.8903 134.578 18.8975C134.578 16.7572 133.414 15.687 131.086 15.687H127.18ZM127.18 13.8071H130.72C131.746 13.8071 132.563 13.5508 133.174 13.0381C133.792 12.5254 134.102 11.8296 134.102 10.9507C134.102 9.97412 133.817 9.26611 133.247 8.82666C132.677 8.37907 131.811 8.15527 130.647 8.15527H127.18V13.8071ZM152.869 6.22656H155.212V24H152.869V10.3037L144.116 24H141.76V6.22656H144.116V19.9229L152.869 6.22656ZM172.649 8.15527H166.936V24H164.604V8.15527H158.904V6.22656H172.649V8.15527ZM179.001 13.4775H183.42C185.276 13.502 186.724 13.978 187.766 14.9058C188.808 15.8335 189.329 17.0949 189.329 18.6899C189.329 20.2931 188.804 21.5708 187.754 22.5229C186.704 23.4751 185.272 23.9674 183.457 24H176.658V6.22656H179.001V13.4775ZM179.001 15.4062V22.0835H183.286C184.45 22.0835 185.353 21.7743 185.996 21.1558C186.647 20.5373 186.973 19.7072 186.973 18.6655C186.973 17.6646 186.659 16.8752 186.033 16.2974C185.414 15.7196 184.531 15.4225 183.384 15.4062H179.001Z" fill="#969393"/>
</svg>
